<mxfile host="app.diagrams.net" modified="2023-10-10T13:23:36.739Z" agent="Mozilla/5.0 (X11; Linux x86_64; rv:109.0) Gecko/20100101 Firefox/118.0" etag="LPfb7M3Qt_dmZVWyVgSI" version="22.0.4" type="device">
  <diagram name="Page-1" id="fZpFVvNK_kxjRwaLPY6W">
    <mxGraphModel dx="2074" dy="1102" grid="1" gridSize="10" guides="1" tooltips="1" connect="1" arrows="1" fold="1" page="1" pageScale="1" pageWidth="850" pageHeight="1100" math="0" shadow="0">
      <root>
        <mxCell id="0" />
        <mxCell id="1" parent="0" />
        <mxCell id="lBAf9pRN95detCUseYao-19" value="PC/NPC dialogue" style="whiteSpace=wrap;html=1;" vertex="1" parent="1">
          <mxGeometry x="90" y="250" width="120" height="60" as="geometry" />
        </mxCell>
        <mxCell id="lBAf9pRN95detCUseYao-20" value="&lt;div&gt;payload to model:&lt;/div&gt;&lt;div&gt;{&lt;/div&gt;&lt;div&gt;&quot;asks&quot;: &quot;how are you?&quot;,&lt;/div&gt;&lt;div&gt;&quot;npc_data&quot;: {...},&lt;/div&gt;&lt;div&gt;}&lt;br&gt;&lt;/div&gt;" style="whiteSpace=wrap;html=1;" vertex="1" parent="1">
          <mxGeometry x="500" y="230" width="230" height="100" as="geometry" />
        </mxCell>
        <mxCell id="lBAf9pRN95detCUseYao-21" value="&lt;div&gt;Empty lines are populated with data from payload.&lt;/div&gt;&lt;div&gt;Prompt:&lt;br&gt;&lt;/div&gt;&lt;div&gt;&quot;PC says to you ___. Imitate person with these ___ characteristics and give an answer. Write an answer to a .json blob with this structure:&lt;/div&gt;&lt;div&gt;{&quot;answer&quot;: ___}&quot;&lt;/div&gt;" style="whiteSpace=wrap;html=1;" vertex="1" parent="1">
          <mxGeometry x="500" y="450" width="230" height="140" as="geometry" />
        </mxCell>
        <mxCell id="lBAf9pRN95detCUseYao-22" value="Model" style="whiteSpace=wrap;html=1;" vertex="1" parent="1">
          <mxGeometry x="555" y="740" width="120" height="60" as="geometry" />
        </mxCell>
        <mxCell id="lBAf9pRN95detCUseYao-23" value="&lt;div&gt;Parsed model output:&lt;/div&gt;&lt;div&gt;{&quot;answer&quot;: &quot;None of yours business!&quot;}&lt;br&gt;&lt;/div&gt;" style="whiteSpace=wrap;html=1;" vertex="1" parent="1">
          <mxGeometry x="90" y="490" width="120" height="60" as="geometry" />
        </mxCell>
        <mxCell id="lBAf9pRN95detCUseYao-24" value="Model output: &quot;Hi, here is your output: {&quot;answer&quot;: &quot;None of yours business!&quot;}&quot;" style="whiteSpace=wrap;html=1;" vertex="1" parent="1">
          <mxGeometry x="90" y="740" width="120" height="60" as="geometry" />
        </mxCell>
        <mxCell id="lBAf9pRN95detCUseYao-25" value="" style="endArrow=classic;html=1;rounded=0;exitX=1;exitY=0.5;exitDx=0;exitDy=0;entryX=0;entryY=0.5;entryDx=0;entryDy=0;" edge="1" parent="1" source="lBAf9pRN95detCUseYao-19" target="lBAf9pRN95detCUseYao-20">
          <mxGeometry width="50" height="50" relative="1" as="geometry">
            <mxPoint x="170" y="550" as="sourcePoint" />
            <mxPoint x="220" y="500" as="targetPoint" />
          </mxGeometry>
        </mxCell>
        <mxCell id="lBAf9pRN95detCUseYao-26" value="" style="endArrow=classic;html=1;rounded=0;exitX=0.5;exitY=1;exitDx=0;exitDy=0;entryX=0.5;entryY=0;entryDx=0;entryDy=0;" edge="1" parent="1" source="lBAf9pRN95detCUseYao-20" target="lBAf9pRN95detCUseYao-21">
          <mxGeometry width="50" height="50" relative="1" as="geometry">
            <mxPoint x="220" y="290" as="sourcePoint" />
            <mxPoint x="510" y="290" as="targetPoint" />
          </mxGeometry>
        </mxCell>
        <mxCell id="lBAf9pRN95detCUseYao-27" value="" style="endArrow=classic;html=1;rounded=0;exitX=0.5;exitY=1;exitDx=0;exitDy=0;entryX=0.5;entryY=0;entryDx=0;entryDy=0;" edge="1" parent="1" source="lBAf9pRN95detCUseYao-21" target="lBAf9pRN95detCUseYao-22">
          <mxGeometry width="50" height="50" relative="1" as="geometry">
            <mxPoint x="625" y="340" as="sourcePoint" />
            <mxPoint x="625" y="460" as="targetPoint" />
          </mxGeometry>
        </mxCell>
        <mxCell id="lBAf9pRN95detCUseYao-28" value="" style="endArrow=classic;html=1;rounded=0;exitX=0;exitY=0.5;exitDx=0;exitDy=0;entryX=1;entryY=0.5;entryDx=0;entryDy=0;" edge="1" parent="1" source="lBAf9pRN95detCUseYao-22" target="lBAf9pRN95detCUseYao-24">
          <mxGeometry width="50" height="50" relative="1" as="geometry">
            <mxPoint x="635" y="350" as="sourcePoint" />
            <mxPoint x="635" y="470" as="targetPoint" />
          </mxGeometry>
        </mxCell>
        <mxCell id="lBAf9pRN95detCUseYao-29" value="" style="endArrow=classic;html=1;rounded=0;exitX=0.5;exitY=0;exitDx=0;exitDy=0;entryX=0.5;entryY=1;entryDx=0;entryDy=0;" edge="1" parent="1" source="lBAf9pRN95detCUseYao-24" target="lBAf9pRN95detCUseYao-23">
          <mxGeometry width="50" height="50" relative="1" as="geometry">
            <mxPoint x="565" y="780" as="sourcePoint" />
            <mxPoint x="220" y="780" as="targetPoint" />
          </mxGeometry>
        </mxCell>
        <mxCell id="lBAf9pRN95detCUseYao-30" value="" style="endArrow=classic;html=1;rounded=0;exitX=0.5;exitY=0;exitDx=0;exitDy=0;entryX=0.5;entryY=1;entryDx=0;entryDy=0;entryPerimeter=0;" edge="1" parent="1" source="lBAf9pRN95detCUseYao-23" target="lBAf9pRN95detCUseYao-19">
          <mxGeometry width="50" height="50" relative="1" as="geometry">
            <mxPoint x="575" y="790" as="sourcePoint" />
            <mxPoint x="140" y="310" as="targetPoint" />
          </mxGeometry>
        </mxCell>
        <mxCell id="lBAf9pRN95detCUseYao-31" value="PC asks something from NPC" style="text;html=1;align=center;verticalAlign=middle;resizable=0;points=[];autosize=1;strokeColor=none;fillColor=none;" vertex="1" parent="1">
          <mxGeometry x="260" y="240" width="180" height="30" as="geometry" />
        </mxCell>
        <mxCell id="lBAf9pRN95detCUseYao-32" value="Prompt is created from payload" style="text;html=1;align=center;verticalAlign=middle;resizable=0;points=[];autosize=1;strokeColor=none;fillColor=none;" vertex="1" parent="1">
          <mxGeometry x="620" y="368" width="190" height="30" as="geometry" />
        </mxCell>
        <mxCell id="lBAf9pRN95detCUseYao-33" value="Prompt is send to model" style="text;html=1;align=center;verticalAlign=middle;resizable=0;points=[];autosize=1;strokeColor=none;fillColor=none;" vertex="1" parent="1">
          <mxGeometry x="620" y="648" width="150" height="30" as="geometry" />
        </mxCell>
        <mxCell id="lBAf9pRN95detCUseYao-34" value="Model creates output" style="text;html=1;align=center;verticalAlign=middle;resizable=0;points=[];autosize=1;strokeColor=none;fillColor=none;" vertex="1" parent="1">
          <mxGeometry x="310" y="730" width="130" height="30" as="geometry" />
        </mxCell>
        <mxCell id="lBAf9pRN95detCUseYao-35" value="Output is parsed" style="text;html=1;align=center;verticalAlign=middle;resizable=0;points=[];autosize=1;strokeColor=none;fillColor=none;" vertex="1" parent="1">
          <mxGeometry x="150" y="638" width="110" height="30" as="geometry" />
        </mxCell>
        <mxCell id="lBAf9pRN95detCUseYao-36" value="Parsed output is shown to PC" style="text;html=1;align=center;verticalAlign=middle;resizable=0;points=[];autosize=1;strokeColor=none;fillColor=none;" vertex="1" parent="1">
          <mxGeometry x="150" y="380" width="180" height="30" as="geometry" />
        </mxCell>
      </root>
    </mxGraphModel>
  </diagram>
</mxfile>
